<svg version="1.1" id="Layer_1" xmlns="http://www.w3.org/2000/svg" xmlns:xlink="http://www.w3.org/1999/xlink" x="0px" y="0px"
	 width="100%" viewBox="0 0 1024 1024" enable-background="new 0 0 1024 1024" xml:space="preserve">
<path fill="#000000" opacity="1.000000" stroke="none" 
	d="
M817.783997,429.338806 
	C808.409790,426.207764 799.403931,423.221985 790.440063,420.114838 
	C784.639587,418.104279 778.994934,415.754425 772.561707,417.050385 
	C768.574585,417.853668 765.067383,414.488861 760.786499,414.933380 
	C759.644470,424.172913 753.445374,428.765503 745.549500,431.686676 
	C740.685852,433.486023 735.964111,433.100250 731.930725,429.612579 
	C727.399048,425.693970 722.409058,424.618591 716.592224,425.945282 
	C710.580139,427.316528 705.959717,425.209320 702.552002,419.887482 
	C698.766541,413.975677 696.624451,413.976288 691.936523,419.247223 
	C687.910034,423.774567 684.791260,423.276367 682.351746,417.586884 
	C681.107239,414.684448 680.267212,411.607269 678.999329,408.716522 
	C677.241089,404.707794 674.099365,402.379089 669.639709,402.433655 
	C666.276245,402.474731 663.242859,403.580505 662.526733,407.384369 
	C661.930542,410.551239 665.310669,415.313416 668.286194,415.980011 
	C681.489624,418.938019 681.750427,419.022003 681.885681,432.607880 
	C681.990051,443.096924 681.478882,453.590820 681.372925,464.083893 
	C681.339417,467.405457 680.030457,469.015472 676.638000,469.000397 
	C670.139099,468.971497 663.639343,469.019043 657.140747,469.096649 
	C653.958435,469.134644 652.688660,467.651886 652.749390,464.496613 
	C652.855408,458.999237 652.630005,453.494995 652.761597,447.998840 
	C652.840759,444.692535 651.844482,443.022278 648.210449,443.260590 
	C641.509521,443.700043 635.147461,440.792816 628.393311,441.164764 
	C621.796448,441.528076 618.996155,443.837372 618.223389,450.290314 
	C618.144104,450.951996 618.102783,451.618958 618.003967,452.277466 
	C616.846985,459.991852 616.844971,459.991547 624.280579,459.472321 
	C625.157471,461.342133 623.444519,462.097137 622.588074,463.106262 
	C615.947571,470.930481 608.000427,476.153503 597.527466,478.004791 
	C587.398193,479.795319 577.530029,483.042755 567.520813,485.544739 
	C564.542480,486.289215 562.840149,487.662506 563.036926,491.017700 
	C563.593079,500.496124 563.790527,510.001129 564.582703,519.457703 
	C564.947876,523.816650 568.182312,527.270691 569.811279,531.258667 
	C574.400452,542.493774 581.897034,550.839722 592.914673,556.194885 
	C596.215820,557.799377 599.679688,559.624939 602.494568,562.924988 
	C599.044250,564.551086 596.112793,564.049927 593.188477,562.661682 
	C588.522949,560.446899 583.727478,558.467468 579.220459,555.967468 
	C574.259216,553.215576 569.124634,552.455811 563.499451,552.165894 
	C556.554749,551.807861 550.776550,554.186279 545.152527,557.445374 
	C542.042419,559.247681 539.549988,559.065735 537.107666,556.585632 
	C534.606384,554.045715 532.154663,554.121582 529.090515,555.958374 
	C524.958740,558.435242 520.418762,560.221008 516.195923,562.559692 
	C513.444336,564.083618 511.344147,564.054077 510.290588,560.867310 
	C508.561401,555.636902 504.758606,554.977661 499.993408,555.429321 
	C493.820740,556.014343 487.791992,556.964355 482.118988,559.621399 
	C480.808136,560.235352 479.456207,561.060425 476.754913,560.056396 
	C486.687714,539.478027 496.571655,519.000916 506.691925,498.034149 
	C496.784760,494.127106 486.587494,494.316742 477.287811,490.882050 
	C478.115631,488.200500 480.179108,487.596100 481.806763,486.574280 
	C490.555115,481.082153 499.320435,475.616394 508.120178,470.207062 
	C510.408875,468.800110 511.620392,467.169617 511.730530,464.235107 
	C512.185730,452.102753 512.918030,439.979950 513.625977,427.858185 
	C514.103455,419.682526 510.703033,416.056671 503.470398,417.160004 
	C499.931488,417.699799 498.702118,419.174988 500.885956,422.530029 
	C503.852753,427.087952 505.773682,431.972961 505.219330,437.592255 
	C504.740875,442.442108 502.730347,444.303833 497.802917,444.362183 
	C493.717102,444.410522 490.018280,442.656677 486.087921,441.983551 
	C481.833008,441.254791 480.149139,442.614502 480.378448,446.947784 
	C480.457001,448.432343 480.892426,449.894836 481.103790,451.376099 
	C481.976501,457.491882 481.117920,458.548279 474.899017,459.085144 
	C471.492920,459.379211 468.549316,462.593903 469.647552,465.455597 
	C473.319000,475.022339 473.696869,485.253021 475.962097,495.097168 
	C477.450348,501.564697 478.244171,508.189697 479.622986,514.686035 
	C480.133453,517.091003 479.493500,518.422302 477.500885,519.602295 
	C468.469574,524.950562 459.514404,530.427795 450.460876,535.737671 
	C447.126801,537.693115 444.096863,535.813965 443.664185,531.693726 
	C442.757446,523.058960 443.198761,514.403503 443.561432,505.768799 
	C443.709625,502.240082 442.699158,501.092957 439.094391,501.199341 
	C426.340149,501.575714 426.338531,501.462189 426.336334,514.300659 
	C426.335236,520.633850 426.389374,526.968140 426.278198,533.299500 
	C426.248993,534.964905 426.943085,536.967041 424.794464,538.415955 
	C423.148468,536.947998 423.692383,535.045776 423.668213,533.369751 
	C423.552887,525.372253 423.618866,517.370239 423.361389,509.378174 
	C423.300079,507.474609 423.707458,504.442871 420.465271,504.506012 
	C417.291931,504.567780 417.164886,507.145142 417.163269,509.624176 
	C417.157349,518.790466 417.138824,527.957214 417.029144,537.122620 
	C417.004272,539.203064 417.474670,541.481384 415.546509,543.422058 
	C413.337646,542.456360 413.857758,540.441772 413.841736,538.813721 
	C413.749817,529.481506 413.732819,520.148315 413.730621,510.815491 
	C413.730042,508.277100 413.585876,506.154388 410.078339,506.290466 
	C406.848969,506.415771 406.290497,508.207825 406.309937,510.892303 
	C406.369019,519.058289 406.366028,527.225525 406.281464,535.391235 
	C406.264069,537.073120 406.962097,539.058777 404.789337,540.580566 
	C403.244812,539.099121 403.687836,537.220947 403.674927,535.550720 
	C403.611755,527.384644 403.459229,519.213745 403.675751,511.053467 
	C403.776123,507.270844 402.368561,506.035095 398.733612,506.189972 
	C388.750092,506.615356 378.758820,506.872162 368.768829,507.125549 
	C365.586639,507.206268 364.552826,508.549622 364.611969,511.813538 
	C364.768646,520.454895 364.522675,529.104187 364.386322,537.749512 
	C364.363525,539.194580 364.800446,540.768433 363.487030,542.194214 
	C361.258026,541.007690 361.784729,538.850159 361.765717,537.033752 
	C361.678619,528.701477 361.613617,520.367126 361.715271,512.035645 
	C361.756165,508.683868 360.921600,507.249634 357.107086,507.674896 
	C344.693817,509.058807 332.247101,510.162781 319.798157,511.191467 
	C316.764862,511.442108 315.510651,512.541931 315.069733,515.645508 
	C313.698151,525.299988 314.070557,535.151855 310.959839,544.741821 
	C310.959839,540.662964 310.432526,536.498291 311.079681,532.524841 
	C312.130371,526.073853 311.126984,519.553955 312.401001,513.109497 
	C313.024933,509.953339 310.554199,507.145081 309.370941,504.253632 
	C304.892944,493.311096 300.114685,482.491638 295.604218,471.561981 
	C294.356049,468.537445 292.601257,467.160522 289.215515,467.284973 
	C283.057129,467.511414 276.883972,467.415924 270.718811,467.326355 
	C269.000153,467.301392 267.070038,467.897125 265.511902,466.353424 
	C265.944977,464.182617 267.915222,464.268433 269.317017,463.717804 
	C284.510803,457.749664 299.743652,451.880524 314.919556,445.867584 
	C317.508698,444.841675 321.449249,444.535095 320.550385,440.227692 
	C319.608185,435.712555 315.663910,436.928070 312.738586,437.042389 
	C295.271515,437.724701 277.812653,438.614929 260.347443,439.350433 
	C258.626556,439.422913 256.724365,439.916931 255.079605,438.613892 
	C255.482681,436.662384 257.184570,436.098480 258.516266,435.233154 
	C268.296295,428.878021 278.209137,422.720154 287.855530,416.169373 
	C293.193329,412.544556 298.845490,414.477661 304.347717,414.427704 
	C315.506104,414.326263 326.668335,414.682037 337.829498,414.797729 
	C339.270935,414.812683 341.025909,415.033234 341.572632,413.119751 
	C342.062561,411.404999 340.813385,410.329163 339.746887,409.279633 
	C336.189850,405.779358 331.598633,404.102509 327.058777,402.518158 
	C322.053925,400.771545 320.038666,397.170227 319.812439,392.281372 
	C319.338898,382.045044 326.802216,371.813995 336.739319,368.837097 
	C340.244476,367.787109 343.786133,366.807556 347.192535,365.489319 
	C355.660217,362.212433 361.227234,356.164978 363.636322,347.368164 
	C364.514160,344.162567 365.030884,340.858307 365.902802,337.650818 
	C367.451019,331.955627 371.366364,329.194672 377.122009,330.356049 
	C382.505707,331.442383 386.405975,329.699768 388.946075,325.186798 
	C391.607849,320.457642 395.061249,318.116669 400.700684,318.799866 
	C405.646027,319.398987 404.979248,316.088470 404.147888,312.896790 
	C401.758392,303.723022 404.731262,296.343567 412.466003,292.098938 
	C418.004974,289.059235 421.064514,289.678009 426.109772,293.640991 
	C433.629456,299.547607 439.590210,307.298157 448.081848,312.041351 
	C449.941193,313.079956 450.821899,314.866241 451.012970,317.006287 
	C451.205566,319.162628 451.434906,321.318054 451.731232,323.462341 
	C452.691498,330.411285 458.634308,334.653381 464.620758,331.247070 
	C476.303741,324.599396 486.212921,330.086731 496.395782,334.343292 
	C500.350525,335.996490 503.912537,338.617554 507.588654,340.901978 
	C512.280823,343.817841 515.042419,347.447601 514.263062,353.644318 
	C513.470398,359.946716 518.693970,363.008606 524.473511,360.177734 
	C527.646973,358.623352 530.315613,356.376709 532.788513,353.855957 
	C535.824890,350.760925 539.090942,349.990204 542.188171,353.707245 
	C545.100098,357.201965 548.586365,357.501190 552.552917,356.097717 
	C557.104126,354.487396 561.722412,353.046051 566.198364,351.249451 
	C570.672913,349.453400 574.509399,342.840576 574.184753,338.084351 
	C573.732727,331.461853 576.078247,327.593170 582.124939,325.787079 
	C585.873230,324.667480 586.379456,321.547729 586.539856,318.720245 
	C586.886841,312.601562 590.058533,309.758392 595.824585,309.037811 
	C599.288086,308.604980 602.721252,307.934692 606.176331,307.428009 
	C609.504456,306.939972 612.760925,306.485107 614.828003,303.250214 
	C615.767151,301.780457 617.588928,301.446564 619.203674,301.046539 
	C624.226807,299.802307 626.273071,296.509247 626.024414,291.491211 
	C625.605286,283.031952 621.897156,276.172821 615.877747,270.430237 
	C613.130005,267.808838 609.862122,267.822845 606.515930,268.864594 
	C601.777527,270.339752 598.471558,269.865875 596.455261,264.327789 
	C594.511292,258.988281 591.475586,258.981049 588.579834,263.927917 
	C586.786621,266.991333 584.327087,268.427643 580.977722,268.852112 
	C578.833679,269.123810 576.683899,269.446045 574.583252,269.942596 
	C570.996704,270.790405 569.841919,272.910797 570.761902,276.634644 
	C572.795959,284.867218 570.341736,287.402069 562.036926,286.620056 
	C557.407593,286.184143 552.719604,286.407135 548.062805,286.217102 
	C541.976013,285.968719 540.796509,284.492828 542.381592,278.783569 
	C543.243103,275.680450 541.376343,273.719177 539.969421,271.522827 
	C535.522827,264.581238 536.022461,262.802307 543.085205,258.581207 
	C548.907898,255.101242 555.196838,252.153351 558.374268,245.464218 
	C560.670227,240.630722 557.227844,231.931015 552.117065,232.380508 
	C540.260559,233.423248 530.104492,227.697342 519.068298,225.694687 
	C515.717407,225.086624 512.601685,225.279617 509.995483,227.212769 
	C501.998230,233.144867 492.585419,232.508240 483.576660,232.619629 
	C479.244873,232.673187 474.625946,233.190262 470.229584,231.705475 
	C467.856995,230.904190 466.449463,230.052399 467.007843,227.190018 
	C467.550720,224.406677 468.235016,221.855225 471.424866,221.270752 
	C474.068115,220.786392 475.620117,222.431000 476.020966,224.777359 
	C476.473846,227.428146 477.971283,228.519836 480.396759,228.660675 
	C483.078094,228.816360 484.169342,226.892853 485.005035,224.811752 
	C487.069641,219.670120 487.623199,214.163712 488.772186,208.802338 
	C489.370239,206.011826 490.044403,203.318085 492.119110,201.146378 
	C495.811005,197.281754 499.231110,196.807648 503.597992,199.913605 
	C506.444702,201.938324 509.038086,204.328720 511.936432,206.269333 
	C517.585815,210.051910 520.370544,209.620148 524.827454,204.408417 
	C532.282898,195.690201 541.950256,193.289017 552.764221,195.015533 
	C560.271057,196.214081 562.080688,199.468109 560.636414,207.042557 
	C560.254272,209.046585 558.918152,211.589523 561.919006,212.580048 
	C564.576538,213.457230 566.309143,211.595627 567.545349,209.474091 
	C568.209534,208.334412 568.658508,207.058060 569.115173,205.810654 
	C571.991638,197.952820 576.045471,195.091248 584.400635,194.782379 
	C589.681641,194.587158 594.687195,195.445419 599.372314,197.936096 
	C603.793640,200.286469 607.413696,207.540359 606.636047,212.362473 
	C606.426819,213.660202 605.513123,214.256470 604.597961,215.019531 
	C600.391724,218.526764 600.105957,222.954391 603.703186,227.135254 
	C611.749634,236.487183 626.172974,237.220322 636.523438,228.803467 
	C645.941650,221.144730 656.824036,219.949463 665.597351,225.610092 
	C673.893372,230.962769 677.622986,239.487289 675.817627,249.232925 
	C675.234741,252.379517 674.902283,255.465866 679.506226,254.399826 
	C682.855225,253.624359 685.448425,253.947678 687.379456,256.847961 
	C689.599609,260.182404 690.862854,263.742554 688.799500,267.627472 
	C687.951355,269.224457 686.817566,270.669678 685.696716,272.360474 
	C685.982483,272.546234 686.305176,272.893463 686.689209,272.985718 
	C696.818420,275.418854 698.891479,278.870850 695.969543,288.942535 
	C694.437744,294.222656 692.493042,299.364502 689.982056,304.280640 
	C687.752502,308.645935 689.064575,310.741058 694.021973,310.705078 
	C695.333130,310.695557 696.647400,310.337036 697.950256,310.086731 
	C707.462585,308.259247 715.631348,313.988983 717.187988,323.593231 
	C718.337341,330.685303 714.957520,335.869171 707.907776,337.742004 
	C704.539612,338.636871 700.867310,339.034576 698.854614,342.383484 
	C697.574280,344.513733 696.168030,347.025726 698.042847,349.347351 
	C699.701904,351.401855 702.265381,351.871887 704.903687,351.288605 
	C708.830627,350.420380 711.909424,348.337891 714.125610,344.954224 
	C715.713013,342.530487 717.740295,340.608826 720.577637,339.681702 
	C722.460388,339.066528 724.530029,338.840912 725.401733,340.868439 
	C726.929077,344.421204 729.316040,343.508484 732.010803,342.867279 
	C737.861938,341.475098 738.867676,342.226440 738.691040,347.949890 
	C738.630554,349.908142 739.455505,350.815308 741.070068,351.103088 
	C742.687195,351.391327 744.367920,351.464111 746.015015,351.418976 
	C753.715881,351.207886 760.023315,355.764343 762.051758,363.089752 
	C763.203979,367.251129 761.462219,369.064301 757.079651,368.265839 
	C749.747314,366.929932 750.034241,367.330292 751.390564,374.399689 
	C752.823242,381.867157 757.058044,384.570587 763.769043,386.475952 
	C778.339050,390.612640 792.685608,395.538025 807.111145,400.179474 
	C808.630188,400.668243 810.383606,400.868652 811.706177,403.137207 
	C804.403381,406.158997 797.272583,409.109680 790.201172,412.035736 
	C790.621582,414.163361 792.037415,414.328918 793.259338,414.699829 
	C805.523071,418.422913 817.762024,422.231598 830.069214,425.805328 
	C837.027100,427.825714 843.191040,431.499146 849.638062,434.589081 
	C850.480713,434.992950 851.373108,435.763306 851.751892,436.588989 
	C854.370361,442.296234 857.268494,447.902313 859.215698,454.603546 
	C853.072754,455.803680 847.268860,455.463715 841.617188,455.069183 
	C835.161743,454.618500 830.538391,456.648621 826.581055,461.751831 
	C824.474121,464.468811 824.498352,466.217377 826.507690,468.627625 
	C829.541199,472.266479 833.077148,475.568848 835.365784,480.344879 
	C828.177856,483.838501 821.016235,485.939453 814.003235,488.433563 
	C812.411255,488.999695 809.859497,488.668121 810.297485,491.925629 
	C810.502930,493.453918 808.378418,493.512878 807.210999,493.938049 
	C787.966370,500.946533 768.702515,507.902252 749.442017,514.867126 
	C747.523438,515.560913 745.380859,516.330505 743.781738,514.661743 
	C737.679626,508.293701 729.871643,509.311127 722.260986,509.425720 
	C708.121582,509.638641 693.983032,509.908997 679.843750,510.128448 
	C673.543091,510.226227 673.058105,510.656921 673.034546,516.999451 
	C673.000427,526.165588 672.916077,535.333130 673.048462,544.497314 
	C673.101379,548.162170 671.701294,549.678650 668.026306,549.383667 
	C665.542297,549.184265 663.029114,549.368347 660.529541,549.338196 
	C654.291626,549.263000 653.834595,548.703735 656.269897,543.127563 
	C660.336365,533.816528 664.568970,524.578186 668.715698,515.302063 
	C669.249817,514.106995 669.688477,512.869202 670.254883,511.440582 
	C668.063599,510.179657 666.020813,510.530640 663.904480,510.944305 
	C649.381165,513.783386 634.862793,516.652100 620.308289,519.323242 
	C616.987793,519.932556 615.518860,521.892883 614.545166,524.750427 
	C613.708923,527.204895 612.550537,528.927917 609.436646,527.322693 
	C597.291077,521.061646 585.307861,514.511597 573.558716,507.536133 
	C572.436218,506.869720 571.237183,506.147583 571.100098,504.561157 
	C571.698242,502.678802 573.433655,502.352600 574.994019,501.899323 
	C598.173462,495.165833 621.537415,489.119354 644.947632,483.252686 
	C646.846008,482.777008 648.920593,482.790894 650.899353,482.881592 
	C686.828003,484.528473 722.756897,486.174500 758.680359,487.931122 
	C771.477417,488.556854 784.259766,489.482819 797.050476,490.244110 
	C798.020325,490.301819 799.197754,490.468475 799.950439,490.026062 
	C807.862793,485.375000 816.722107,482.706635 825.035522,478.195496 
	C823.250610,473.921844 819.888794,471.112335 817.074829,467.960663 
	C814.795898,465.408264 814.931152,463.570709 817.323364,461.203278 
	C820.632935,457.927917 823.583252,454.292358 826.770508,450.888763 
	C827.774475,449.816650 828.993164,448.267822 830.203003,448.180878 
	C836.133667,447.754486 835.695312,442.827789 836.994141,439.141724 
	C837.761292,436.964752 836.054993,436.246033 834.559265,435.447601 
	C829.374878,432.680115 823.608093,431.505493 817.783997,429.338806 
M404.577820,418.656189 
	C402.851624,415.212311 405.469666,412.304352 406.017303,409.281097 
	C398.668701,404.439301 390.327301,407.607452 389.806915,415.671814 
	C394.392303,415.235260 395.442719,418.683502 396.557281,422.101562 
	C397.228058,424.158752 397.857269,426.242218 398.714935,428.223053 
	C400.347351,431.993378 399.142090,433.341248 395.132629,433.292938 
	C383.302216,433.150391 371.469330,433.212524 359.637390,433.194427 
	C357.300171,433.190857 355.031525,433.262238 352.874390,434.495117 
	C337.991974,443.000641 322.555237,450.586823 309.039093,461.337311 
	C305.588654,464.081665 302.252075,467.062531 297.612640,468.300110 
	C302.989502,481.105164 308.231873,493.519928 313.402893,505.964386 
	C314.428253,508.431946 316.222900,508.967865 318.613281,508.692322 
	C325.546661,507.893036 332.504028,507.276917 339.418243,506.339996 
	C362.058441,503.271973 384.797180,502.915527 407.581116,503.657898 
	C410.957886,503.767883 414.397644,503.668335 417.377777,502.169281 
	C424.510773,498.581299 432.265839,498.970428 439.831848,498.078461 
	C444.447479,497.534363 446.607758,499.225922 446.355011,504.183044 
	C446.054565,510.076874 446.284302,515.997742 446.284302,521.906860 
	C446.809937,522.050232 447.335602,522.193542 447.861237,522.336853 
	C452.343475,514.977905 460.459290,510.217865 461.000275,499.974335 
	C461.525085,490.036591 463.415527,480.172974 464.634155,470.267975 
	C464.830994,468.668152 465.203979,466.807709 463.388702,465.767578 
	C461.993805,464.968292 460.884918,465.708038 459.872986,466.737549 
	C454.697540,472.002869 454.689240,471.994781 449.731689,466.520905 
	C444.574066,460.826233 441.687836,460.958313 437.064240,467.091736 
	C436.262543,468.155212 435.470978,469.229706 434.611603,470.245728 
	C431.391296,474.052979 427.556274,474.807434 422.957275,472.840729 
	C418.464172,470.919281 415.716370,467.193604 412.782562,463.453827 
	C412.203979,464.908508 413.173645,465.844177 413.507507,466.885803 
	C415.234863,472.275146 414.456329,474.027893 409.058044,474.987488 
	C405.145447,475.682983 401.075409,476.334351 397.166382,475.986084 
	C392.713074,475.589294 387.992249,476.262360 382.510956,474.054169 
	C387.384949,468.328522 391.660522,463.399719 396.885864,459.295135 
	C401.110931,455.976288 405.342010,453.876617 409.787140,458.681976 
	C409.787140,454.749542 409.796356,451.104095 409.783691,447.458679 
	C409.776062,445.272156 409.251007,443.415344 406.610657,443.226776 
	C402.364868,442.923584 402.073425,440.289886 402.547943,436.866516 
	C403.002838,433.584381 404.178955,430.705658 406.589050,428.499969 
	C408.960236,426.329803 409.105408,424.479431 406.634857,422.309937 
	C405.804932,421.581116 405.392578,420.376770 404.577820,418.656189 
M579.944702,476.610718 
	C576.105103,477.440094 572.581909,479.789856 568.334290,478.975616 
	C573.650513,475.657593 580.064148,474.851013 584.441406,472.114807 
	C577.312378,464.767548 570.216919,457.454865 563.030212,450.048126 
	C565.262329,460.696381 557.604309,472.050018 566.014221,482.852509 
	C574.505554,481.244171 583.500977,479.085419 592.079346,475.175293 
	C587.973267,472.973846 584.429504,475.514282 579.944702,476.610718 
M647.425842,314.859833 
	C648.945984,316.695984 649.986450,320.753021 653.158752,317.192902 
	C655.467224,314.602203 657.805725,312.049011 660.175781,309.511719 
	C661.741943,307.835083 662.081909,305.663696 661.103577,303.473267 
	C660.431580,301.968567 659.183960,301.311798 657.549072,301.175171 
	C650.559509,300.591003 645.057007,307.414856 647.425842,314.859833 
M543.227722,447.291595 
	C544.429443,448.171265 545.601562,449.095306 546.839844,449.920074 
	C548.635437,451.116028 550.204346,450.663452 550.690430,448.635742 
	C551.390930,445.714233 551.523987,442.652191 549.782959,439.979553 
	C547.633850,436.680573 544.189148,436.900574 540.845398,437.074860 
	C539.485107,437.145782 537.978394,437.437531 537.624023,438.916626 
	C536.869873,442.064148 539.464661,443.599030 541.195923,445.507782 
	C541.638428,445.995605 542.171692,446.401001 543.227722,447.291595 
M421.922211,415.801758 
	C421.501770,416.960693 420.232544,417.972473 421.400146,419.599701 
	C424.929810,418.991760 427.670258,417.053314 428.470673,413.607178 
	C429.320404,409.948761 428.227570,406.309753 426.009460,403.220154 
	C424.984650,401.792755 423.403229,401.822876 422.008972,402.822021 
	C420.609253,403.825073 420.796570,405.041534 421.831451,406.235657 
	C424.306946,409.092102 423.399933,412.103027 421.922211,415.801758 
M846.860718,447.107178 
	C847.371094,443.359070 845.948669,439.700653 842.324219,439.761047 
	C838.401794,439.826355 839.117188,444.120300 838.627380,447.280457 
	C839.753906,447.470337 840.550781,447.730011 841.341248,447.711792 
	C842.997314,447.673615 844.649902,447.489105 846.860718,447.107178 
z"/>
<path fill="#000000" opacity="1.000000" stroke="none" 
	d="
M303.717285,810.216187 
	C301.231567,805.948914 304.483429,806.666199 306.402802,806.729065 
	C318.805298,807.135071 330.949066,805.310120 343.018219,802.727478 
	C347.083801,801.857544 351.144867,801.020081 355.042480,799.488892 
	C364.286987,795.857178 373.959076,794.327820 383.829681,793.834045 
	C385.293060,793.760803 386.836853,793.995239 388.881775,792.460083 
	C378.899231,771.697693 364.349426,752.879700 358.621857,729.896240 
	C361.569397,728.771790 363.137146,730.343140 364.799500,731.211426 
	C380.421997,739.371460 392.098785,751.720520 401.857635,766.135803 
	C409.722107,777.752930 416.437042,790.002625 422.374878,802.691345 
	C423.504303,805.104858 424.678925,806.824524 427.928009,806.519226 
	C450.776672,804.372070 471.801422,810.388428 491.573059,821.382446 
	C501.066559,826.661255 509.809967,833.087158 517.678955,840.594727 
	C520.175903,842.976990 522.820618,843.850891 526.194519,843.818176 
	C539.359680,843.690552 552.527405,843.687805 565.692749,843.803833 
	C568.867249,843.831848 571.330322,842.972900 573.846558,840.942810 
	C591.805115,826.454346 611.372559,815.010498 634.211853,810.025146 
	C640.559998,808.639343 646.950684,807.278564 653.490906,807.693237 
	C657.647339,807.956787 659.771118,806.123047 661.450195,802.452454 
	C668.744995,786.504700 677.545166,771.419495 688.174194,757.434143 
	C696.884949,745.972778 707.681641,736.991943 720.405823,730.306885 
	C721.278259,729.848633 722.244812,729.531189 723.203552,729.293396 
	C723.614685,729.191406 724.117981,729.461060 725.435913,729.749084 
	C722.499939,741.215759 717.239075,751.479858 711.815308,761.691650 
	C706.372681,771.938904 699.815125,781.599792 695.047791,792.354858 
	C698.451904,794.792847 701.925842,793.764465 705.090820,794.029419 
	C715.154785,794.872131 724.493652,798.432678 734.122925,800.990662 
	C748.131165,804.711975 762.392639,807.257874 777.023743,806.707458 
	C778.435730,806.654236 780.030090,806.221191 781.341125,807.570923 
	C781.403442,810.053162 779.393738,811.296570 777.905701,812.694580 
	C765.995361,823.884155 751.751709,829.477112 735.493408,830.322815 
	C715.005493,831.388428 695.147095,827.719482 676.352417,820.197083 
	C659.034729,813.265686 642.438660,814.874023 625.660339,820.480225 
	C607.764465,826.459839 591.695679,835.841492 577.551453,848.344788 
	C574.707214,850.858948 571.824463,851.968506 568.115112,851.927795 
	C553.284729,851.764771 538.451111,851.615479 523.622192,851.777893 
	C519.596863,851.821960 516.760925,850.472717 513.892517,847.813965 
	C497.247192,832.385864 478.535187,820.508728 455.927795,816.036255 
	C441.572815,813.196289 427.462402,812.966248 413.212189,818.349365 
	C392.584137,826.141846 371.277069,831.465576 348.858551,830.344849 
	C331.316132,829.467773 316.097687,823.490662 303.717285,810.216187 
z"/>
<path fill="#000000" opacity="1.000000" stroke="none" 
	d="
M113.637283,393.545532 
	C120.768547,410.608398 129.909988,425.929321 142.418671,439.214020 
	C147.307571,444.406250 151.717987,450.097992 154.773666,456.681610 
	C155.388077,458.005402 156.128540,459.368774 158.267883,460.520599 
	C173.993942,443.985962 189.708313,427.119812 209.002655,412.811218 
	C210.867096,418.271667 210.235886,422.974335 209.842285,427.644989 
	C208.347076,445.388153 200.222427,460.334167 189.920792,474.295990 
	C181.899216,485.167694 172.788132,495.103394 163.238708,504.653442 
	C160.485092,507.407196 158.247589,507.928864 155.341034,504.790955 
	C137.991653,486.060669 121.169716,466.928589 110.785805,443.211823 
	C103.915207,427.519470 101.259636,411.392303 107.762169,394.784882 
	C108.247032,393.546600 108.771957,392.319397 109.363594,391.129456 
	C109.647652,390.558136 110.131027,390.085938 110.503700,389.595734 
	C112.869965,389.828674 112.829002,391.800049 113.637283,393.545532 
z"/>
<path fill="#000000" opacity="1.000000" stroke="none" 
	d="
M873.760498,425.787323 
	C874.079712,421.626068 872.808350,417.734802 875.314575,413.467072 
	C894.009644,427.539307 910.021545,444.016022 926.397827,461.427368 
	C930.624878,452.929016 935.189392,445.780029 941.012146,439.632294 
	C951.549194,428.507141 959.459229,415.663605 966.321716,402.106567 
	C968.407532,397.985901 970.066650,393.649323 972.423889,388.262848 
	C976.966614,394.591156 978.399109,400.905640 979.221436,407.363312 
	C981.603210,426.065613 974.690979,442.381775 965.494141,457.889740 
	C955.339233,475.013306 942.336548,489.970306 928.744446,504.431458 
	C925.993347,507.358398 924.004150,508.031616 920.710815,504.652313 
	C907.440308,491.035675 894.479614,477.242371 884.892761,460.620667 
	C878.721497,449.920837 874.878540,438.553406 873.760498,425.787323 
z"/>
<path fill="#000000" opacity="1.000000" stroke="none" 
	d="
M262.953979,725.200195 
	C241.048553,720.819214 220.097717,714.953186 201.306900,703.194824 
	C186.192596,693.737122 175.306870,680.997925 171.312561,663.152344 
	C171.060974,662.028320 170.564392,660.914185 171.399368,659.756409 
	C173.049240,658.685364 174.157761,660.075378 175.358078,660.782043 
	C192.449417,670.844177 210.631882,677.845520 230.306274,680.930725 
	C236.059479,681.832886 241.621750,683.796082 246.849808,686.414490 
	C250.877487,688.431702 252.350113,686.844666 252.623444,682.956970 
	C253.990768,663.509094 257.322205,644.369812 261.643738,625.384705 
	C262.081360,623.462280 262.183533,621.426025 264.181793,619.277771 
	C267.909637,622.776794 269.821228,627.335266 271.756592,631.695801 
	C278.550537,647.002563 280.455597,663.336060 281.173615,679.849182 
	C281.789337,694.010498 279.918701,708.076355 279.262634,722.189636 
	C279.077820,726.165955 277.412048,727.997314 273.206696,727.018127 
	C269.969604,726.264343 266.659210,725.825439 262.953979,725.200195 
z"/>
<path fill="#000000" opacity="1.000000" stroke="none" 
	d="
M852.390991,681.100830 
	C874.098511,677.934021 893.518860,669.654663 913.001038,658.177979 
	C911.907227,669.147156 908.146729,677.477478 902.540405,685.005493 
	C891.900208,699.292725 877.000671,707.586304 860.871094,714.018677 
	C844.549072,720.527771 827.498596,724.272339 810.222656,727.136719 
	C806.978088,727.674683 804.847900,727.451050 804.650635,723.213440 
	C803.985596,708.925903 802.149170,694.680420 802.786926,680.347839 
	C803.634460,661.299316 805.711731,642.484314 815.219543,625.381592 
	C816.331055,623.382263 817.176514,621.140564 819.347900,619.832764 
	C821.648804,620.793396 821.591370,623.033264 822.009949,624.846130 
	C826.388672,643.812378 829.496948,662.989868 831.259460,682.377136 
	C831.746155,687.730957 832.538757,688.361328 837.308105,686.100647 
	C842.015869,683.869141 847.056824,682.731018 852.390991,681.100830 
z"/>
<path fill="#000000" opacity="1.000000" stroke="none" 
	d="
M744.415161,746.674316 
	C748.162964,732.424133 752.025513,718.653687 758.906311,705.962769 
	C763.445496,697.590637 769.112244,690.131287 776.314941,683.966370 
	C778.897949,685.243042 778.187561,687.303955 778.210754,688.975464 
	C778.479492,708.313599 776.377686,727.476440 773.695374,746.581848 
	C772.714233,753.570251 773.006653,753.974792 780.123596,752.844543 
	C788.545776,751.506958 796.973267,752.234558 805.446411,752.338745 
	C821.241943,752.533142 836.929932,750.406555 852.105225,745.554626 
	C853.371094,745.149841 854.602783,744.635681 855.874939,744.254517 
	C856.321960,744.120544 856.842896,744.233093 857.512146,744.233093 
	C858.856750,746.647522 856.996887,748.364563 856.074890,750.095581 
	C847.667358,765.880737 834.000244,775.171936 817.398682,780.358154 
	C795.996155,787.044312 773.986389,788.266968 751.740540,786.575562 
	C749.087830,786.373901 746.419373,786.246826 743.760803,786.281799 
	C739.316101,786.340271 737.612488,784.850525 738.342773,779.937134 
	C739.981567,768.910828 742.117798,757.991516 744.415161,746.674316 
z"/>
<path fill="#000000" opacity="1.000000" stroke="none" 
	d="
M293.817444,751.739075 
	C299.539948,752.438538 304.787933,753.123413 310.988434,753.932617 
	C308.223419,730.530823 304.450378,707.481995 306.047394,683.272766 
	C310.585266,685.809143 313.126617,689.276306 315.777252,692.504944 
	C329.856445,709.654663 335.489288,730.377014 340.190002,751.405090 
	C342.218628,760.479736 343.583099,769.706177 345.131622,778.883545 
	C346.238892,785.445740 345.637238,785.832825 339.072540,786.330688 
	C316.890747,788.012939 294.822906,787.739685 273.112976,782.322937 
	C253.478134,777.423828 237.022827,767.883606 227.229492,749.237488 
	C226.480942,747.812195 225.220123,746.499329 226.015091,744.046936 
	C230.532089,744.267883 234.601318,746.666626 238.955399,747.735535 
	C256.885620,752.137756 275.025208,752.976257 293.817444,751.739075 
z"/>
<path fill="#000000" opacity="1.000000" stroke="none" 
	d="
M928.013428,566.048462 
	C921.601257,570.278748 915.438904,574.240723 909.389099,578.367798 
	C906.418030,580.394531 904.498169,580.173950 902.683655,576.791260 
	C890.991394,554.994324 880.517883,532.757446 877.231812,507.875916 
	C875.891907,497.730560 876.736938,487.705322 879.557129,476.198669 
	C895.155457,494.639435 905.897583,514.763916 917.177734,534.170471 
	C919.914856,534.405701 920.867981,532.643921 922.054382,531.346985 
	C926.464111,526.526306 931.401184,522.350708 936.879150,518.787415 
	C952.676941,508.511414 966.028992,495.657410 977.150146,480.460388 
	C977.833984,479.526001 978.612671,478.656067 979.403015,477.808136 
	C979.594666,477.602539 980.008057,477.603668 980.369019,477.494751 
	C982.247620,478.069763 981.950256,479.777252 982.184143,481.170441 
	C985.517090,501.029236 977.711304,517.302734 965.692871,532.196045 
	C955.031738,545.407349 941.992371,555.987671 928.013428,566.048462 
z"/>
<path fill="#000000" opacity="1.000000" stroke="none" 
	d="
M167.607773,532.424866 
	C178.430618,513.064392 189.241287,494.106384 204.210571,476.127380 
	C206.897598,486.628571 207.991394,495.758606 206.969467,504.986206 
	C204.091705,530.971313 193.096695,554.076660 181.027939,576.774963 
	C179.637512,579.390015 178.107025,580.641785 175.169785,578.751404 
	C150.032944,562.574097 125.192917,546.027100 109.373985,519.560181 
	C102.156647,507.484711 98.975739,494.432281 101.755684,480.320312 
	C101.945282,479.357880 101.920700,478.296082 103.129562,477.629364 
	C105.389572,477.717896 106.148727,479.786835 107.243179,481.309021 
	C117.263206,495.244995 129.600769,506.804138 143.591614,516.625671 
	C150.413223,521.414368 157.315353,526.065613 162.763855,532.488586 
	C164.280090,534.276001 165.745667,535.318420 167.607773,532.424866 
z"/>
<path fill="#000000" opacity="1.000000" stroke="none" 
	d="
M440.786682,713.896362 
	C439.003204,714.959717 437.753510,716.960632 435.695709,715.351990 
	C433.725189,713.811646 433.564240,711.892639 434.356873,709.541870 
	C437.713531,699.586304 439.407135,689.234558 441.383698,678.954529 
	C441.695068,677.335266 441.956146,675.674377 441.111938,673.934875 
	C438.042389,673.332214 436.699738,674.893188 435.885681,677.683411 
	C434.165192,683.580322 433.031860,689.693909 429.629181,695.002991 
	C426.498749,699.887207 423.226471,704.884583 416.529327,704.174561 
	C409.047913,703.381409 402.136414,700.970337 398.575256,693.442932 
	C397.312469,690.773682 396.459015,687.910767 395.428680,685.162964 
	C382.640808,688.476562 370.392639,683.304382 363.663544,671.884827 
	C362.988403,670.739075 362.450500,669.646851 361.006470,669.113953 
	C343.353516,662.600464 342.339111,661.170715 343.017059,643.097473 
	C338.668549,648.678040 334.962646,653.881470 328.277679,655.994019 
	C331.472382,655.741455 333.507050,656.522034 333.367645,659.988098 
	C333.258942,662.690979 334.828888,663.515442 337.277893,662.902222 
	C340.131744,662.187683 341.090424,663.731506 341.710358,666.184753 
	C343.352386,672.682678 342.625092,676.115112 339.079315,677.486328 
	C333.704437,679.565002 331.858063,678.515808 329.841248,672.218750 
	C327.596863,671.073730 324.362610,673.530457 322.663147,670.242004 
	C321.564087,668.115356 321.310089,659.476501 322.542542,656.988892 
	C314.064056,654.942017 311.468414,647.813416 308.538666,640.868042 
	C307.320221,637.979553 308.695496,636.560120 310.804962,635.134338 
	C313.110992,633.575684 314.365540,634.758240 315.674286,636.596008 
	C318.819183,641.012207 323.193115,642.415649 328.414429,641.408508 
	C332.518463,640.616821 334.440887,638.532410 333.442383,634.009766 
	C332.304993,628.858154 335.781036,623.093140 340.707245,621.272034 
	C343.594116,620.204773 344.502014,622.085022 345.272034,624.345825 
	C347.624298,631.251831 347.727051,631.298523 354.212524,628.714478 
	C355.864868,628.056152 357.375061,627.666260 358.827484,629.061890 
	C360.268097,630.446228 360.041870,632.030457 359.440948,633.682312 
	C358.359711,636.654480 357.444794,639.698425 356.181183,642.590332 
	C354.270691,646.962891 356.023560,649.790771 359.479462,652.394226 
	C362.880768,654.956604 365.753662,654.893616 368.662994,651.750244 
	C370.427856,649.843323 372.859009,649.726807 375.190430,650.117859 
	C378.130920,650.611145 379.122131,652.303467 377.672821,655.150757 
	C374.268494,661.838989 374.751099,664.075256 380.970428,668.157837 
	C383.417114,669.763977 385.922394,671.527100 389.723450,671.945068 
	C389.788177,665.856506 387.797058,660.413086 385.864471,655.091553 
	C384.366119,650.965759 384.795105,647.350037 386.486969,643.538574 
	C388.317200,639.415466 391.330322,637.412415 395.853790,637.427124 
	C405.597198,637.458801 414.935211,640.004395 424.367432,641.940308 
	C426.637390,642.406189 427.842712,643.949280 426.886993,646.402161 
	C425.599518,649.706482 418.566620,653.279236 414.924469,652.698669 
	C410.728394,652.029846 406.650299,650.435791 401.904022,650.740234 
	C402.450012,653.164551 403.460266,655.358154 401.270233,657.281616 
	C400.154755,658.261353 400.904205,659.813354 401.323212,661.067444 
	C403.433472,667.383118 405.503601,673.713867 407.746277,679.982605 
	C408.352295,681.676636 409.365662,683.280945 410.446442,684.737671 
	C412.736328,687.823975 416.270355,688.916748 419.728760,688.599915 
	C423.072418,688.293701 422.828705,684.582703 423.426880,682.200867 
	C425.128601,675.424805 426.472412,668.556641 427.870056,661.706970 
	C428.811096,657.094910 431.201294,653.758789 435.772430,652.250732 
	C439.155518,651.134705 441.366150,652.467041 440.721405,655.969299 
	C439.892303,660.473145 441.490631,664.506287 442.173889,668.944214 
	C442.761688,663.553711 447.304779,662.164917 450.971985,660.213684 
	C453.739899,658.740906 455.934631,661.131653 455.299347,665.185913 
	C453.933838,673.900452 452.327850,682.580811 450.639404,691.239868 
	C449.845245,695.312683 448.616455,699.299866 447.615082,703.333435 
	C446.578613,707.508545 444.595123,711.070129 440.786682,713.896362 
z"/>
<path fill="#000000" opacity="1.000000" stroke="none" 
	d="
M896.368530,610.143066 
	C913.012146,608.913818 925.045715,599.172791 937.395447,590.127075 
	C941.150330,587.376831 944.647278,584.276123 948.373291,581.483765 
	C950.174377,580.133850 951.817139,578.315735 954.625061,578.256592 
	C955.655762,581.519470 954.320251,584.434082 953.373352,587.296509 
	C948.019470,603.481812 937.683899,616.086609 924.667358,626.694824 
	C905.846680,642.033264 883.906067,650.951721 860.870972,657.625427 
	C858.328552,658.362000 856.508301,658.010620 855.917419,655.257385 
	C850.250732,628.849792 845.144348,602.369995 848.999512,575.161377 
	C850.008118,568.042603 852.404541,561.271912 855.889221,554.933044 
	C856.842651,553.198730 857.685547,551.374023 860.231934,550.070312 
	C863.107849,555.266113 864.420715,560.921143 866.143188,566.329651 
	C870.788696,580.916382 874.208618,595.838257 877.299500,610.820618 
	C878.231995,615.340576 880.359009,616.337891 884.227173,614.408875 
	C887.977478,612.538879 891.911011,611.233459 896.368530,610.143066 
z"/>
<path fill="#000000" opacity="1.000000" stroke="none" 
	d="
M200.076202,650.082642 
	C181.699875,642.559509 164.817413,633.316956 150.957108,619.359924 
	C140.598923,608.929504 132.371170,597.155701 129.195465,582.441284 
	C128.879974,580.979492 128.287277,579.560059 129.501602,577.849792 
	C134.137787,580.085999 137.632416,583.935608 141.784424,586.836731 
	C148.334320,591.413208 154.705933,596.250854 161.338974,600.700806 
	C167.876556,605.086731 174.820908,608.449219 182.914948,609.300476 
	C188.527969,609.890808 193.939529,611.788208 199.146881,614.105591 
	C204.376999,616.433044 205.418396,615.992859 206.519272,610.360962 
	C208.980698,597.768921 211.978058,585.315308 215.744003,573.053162 
	C218.066650,565.490540 220.549744,557.977051 223.080704,550.066833 
	C226.179550,551.655396 227.362671,553.777893 228.506699,555.991272 
	C235.645050,569.802185 236.611679,584.756714 235.943634,599.793701 
	C235.182556,616.924194 232.659424,633.888489 229.156677,650.694214 
	C227.484222,658.718384 227.330078,658.957886 219.393417,656.505127 
	C213.034653,654.540039 206.754364,652.320984 200.076202,650.082642 
z"/>
<path fill="#000000" opacity="1.000000" stroke="none" 
	d="
M256.960144,221.802261 
	C269.597260,218.244995 281.786652,214.544540 295.872772,212.002502 
	C293.367737,219.448029 290.125549,224.860077 285.961426,229.706604 
	C277.004761,240.131088 265.519531,247.172775 253.450729,253.322464 
	C240.379822,259.982758 226.623077,264.976776 212.796280,269.809692 
	C209.430405,270.986176 207.958664,270.635376 206.527878,266.996063 
	C200.173096,250.832367 194.814056,234.410309 193.272018,217.034439 
	C191.340515,195.269867 196.213028,175.693817 213.001373,160.369904 
	C214.551865,158.954651 215.967773,157.149170 218.447372,157.492416 
	C219.676208,158.855606 219.174820,160.375931 219.038361,161.820023 
	C217.428757,178.852844 217.221344,195.683823 224.785019,211.702225 
	C227.493195,217.437576 226.996323,224.054321 228.913910,230.788055 
	C238.349609,227.754013 247.458771,224.824966 256.960144,221.802261 
z"/>
<path fill="#000000" opacity="1.000000" stroke="none" 
	d="
M834.024170,255.045502 
	C820.466614,248.397598 807.702393,241.219650 798.048889,229.736969 
	C794.018738,224.943115 790.218567,219.900375 788.246887,212.291275 
	C811.489746,216.675980 833.008667,223.438034 855.405334,231.175781 
	C855.602478,217.888031 862.273865,206.895432 864.375671,194.677979 
	C866.487061,182.404724 865.270508,169.969299 864.547852,156.318817 
	C873.669128,161.905792 879.243225,168.638641 883.487610,176.647736 
	C892.398743,193.462997 892.021973,211.259323 888.792603,229.244919 
	C886.463684,242.215698 882.245422,254.660263 877.388245,266.908966 
	C876.018188,270.363922 874.297363,271.099213 870.949097,269.894836 
	C858.572571,265.442871 846.265930,260.831238 834.024170,255.045502 
z"/>
<path fill="#000000" opacity="1.000000" stroke="none" 
	d="
M859.399414,368.465973 
	C855.966492,362.099762 853.771973,355.794281 853.791138,349.107697 
	C855.911621,347.904297 856.942749,349.055817 857.891113,349.842590 
	C867.734985,358.008881 878.965393,363.757446 890.587463,368.870392 
	C897.462341,371.894867 903.879822,375.791565 910.049805,380.037140 
	C913.588501,382.472107 916.093384,381.920807 917.392944,378.016510 
	C922.403137,362.964081 931.335022,349.660797 936.571716,334.732849 
	C939.217529,327.190521 940.203308,319.298279 940.026062,311.243103 
	C943.088196,311.110474 943.868774,313.209045 944.887329,314.761078 
	C958.176575,335.010406 960.140015,356.454254 951.810120,379.092163 
	C946.116577,394.565125 937.472717,408.325226 927.992371,421.654724 
	C926.367126,423.939850 924.749023,424.653107 922.159119,423.098053 
	C902.715332,411.423431 883.560669,399.401489 868.495239,381.994232 
	C864.979004,377.931366 862.020142,373.552551 859.399414,368.465973 
z"/>
<path fill="#000000" opacity="1.000000" stroke="none" 
	d="
M228.454437,348.334076 
	C231.177567,349.740723 230.040756,351.829193 229.718277,353.664337 
	C226.813141,370.196625 216.578339,382.143768 204.685532,392.891205 
	C191.903702,404.441986 177.568298,413.851654 162.638016,422.390289 
	C160.014709,423.890564 157.995758,424.490631 155.848633,421.547577 
	C143.194260,404.202301 132.085022,386.119537 128.176376,364.552612 
	C124.860405,346.255951 129.162506,329.578278 139.231140,314.210297 
	C140.000275,313.036377 140.735214,311.534424 143.563797,311.617004 
	C142.448517,338.476898 161.104889,358.322113 168.177780,383.698395 
	C187.719208,369.281494 210.235443,362.907837 228.454437,348.334076 
z"/>
<path fill="#000000" opacity="1.000000" stroke="none" 
	d="
M157.662018,301.184448 
	C150.257996,277.810211 154.604340,257.077332 170.040833,238.040634 
	C169.576538,265.284027 188.441132,285.134186 195.344208,310.989136 
	C214.738556,295.377441 238.413620,290.248535 256.413147,274.500763 
	C257.242920,281.462677 255.520691,287.490143 252.714691,293.254456 
	C245.202133,308.687347 232.757111,319.658630 219.424026,329.804352 
	C210.143646,336.866180 200.234589,342.973572 190.297791,349.046356 
	C186.802902,351.182251 184.628326,350.726624 182.095200,347.153717 
	C172.038483,332.968811 163.087616,318.253754 157.662018,301.184448 
z"/>
<path fill="#000000" opacity="1.000000" stroke="none" 
	d="
M848.103882,315.896790 
	C837.898926,305.769165 829.492493,294.968475 827.054749,280.630035 
	C826.756042,278.873138 826.032104,277.073822 827.199646,275.401794 
	C828.348694,274.697357 829.254150,275.306244 829.993469,275.917206 
	C840.622131,284.700745 852.813354,290.765198 865.245728,296.469788 
	C871.596985,299.384094 877.607117,302.982422 883.312622,307.036743 
	C886.378784,309.215576 888.431458,309.448822 890.014038,305.224396 
	C894.275635,293.848724 899.327759,282.833771 905.086731,272.100220 
	C910.088989,262.777069 912.755432,252.639435 912.681885,241.917435 
	C912.673096,240.635269 912.536377,239.202896 913.924072,238.373154 
	C915.402771,238.184937 915.967285,239.331589 916.611084,240.238708 
	C927.426270,255.477753 931.776794,272.364075 928.611816,290.817627 
	C924.850159,312.750458 913.301270,331.018463 900.470154,348.614563 
	C898.582031,351.203827 896.536621,350.635162 894.385681,349.387024 
	C877.935913,339.841522 862.154358,329.364075 848.103882,315.896790 
z"/>
<path fill="#000000" opacity="1.000000" stroke="none" 
	d="
M633.373718,694.410889 
	C638.853821,694.168274 641.716248,690.084534 645.417969,687.397339 
	C646.873352,686.340759 648.085449,684.674744 650.224060,685.644043 
	C652.311157,686.589966 652.717834,688.488953 653.090759,690.546326 
	C654.162170,696.457764 652.868835,700.947083 647.469727,704.614380 
	C638.727295,710.552368 631.502686,719.961182 620.273193,720.331848 
	C610.471130,720.655396 602.803528,724.746582 594.611023,728.863770 
	C591.381287,730.486938 587.080872,729.775024 583.314941,728.781067 
	C581.893372,728.405823 580.524170,727.467163 579.120544,728.768494 
	C575.691956,731.947205 571.735962,732.285034 567.505493,730.837158 
	C566.295288,730.423035 565.215271,730.447083 564.185974,731.150330 
	C560.601196,733.599854 556.857666,734.067932 552.842163,732.258606 
	C552.304932,732.016479 551.385315,731.966248 550.944153,732.268005 
	C545.846863,735.753174 540.362305,734.985657 534.632751,734.468079 
	C525.364014,733.630615 519.544250,729.299438 518.318420,719.985779 
	C516.800781,708.455017 515.318970,696.936707 512.969543,685.538574 
	C512.409790,682.822998 517.084717,676.295593 519.772034,676.069702 
	C522.812683,675.814270 523.639832,678.103088 524.072021,680.546204 
	C525.609619,689.237793 526.663757,697.990356 527.324463,706.790771 
	C527.386719,707.619873 527.331360,708.457764 527.393982,709.286865 
	C527.997070,717.276306 529.298279,718.786743 536.792236,720.238647 
	C541.171326,721.087036 545.547668,718.589783 548.197449,713.527893 
	C549.193237,711.625610 550.729797,710.511047 552.528687,709.575928 
	C553.928650,708.848267 555.287354,708.471497 556.750427,709.461853 
	C558.358215,710.550171 557.984192,711.915344 557.581482,713.447144 
	C557.266663,714.644409 556.718079,716.036804 558.198730,717.102722 
	C560.357910,716.373230 560.485352,714.416992 560.684692,712.695740 
	C560.988464,710.072571 562.641479,708.533447 564.618591,707.229675 
	C565.714722,706.506897 566.944214,705.814880 568.324219,706.692017 
	C569.723816,707.581665 570.283325,708.829407 570.121887,710.506226 
	C569.955750,712.232727 568.630859,713.982239 570.352722,716.030945 
	C573.166870,715.311157 573.338806,712.834717 573.354858,710.685608 
	C573.371155,708.516479 573.739441,706.754517 575.552124,705.452942 
	C576.864990,704.510193 577.944763,702.884094 579.865173,703.509888 
	C582.046631,704.220642 581.981262,706.192871 582.155457,708.044678 
	C582.800842,714.905701 585.270081,715.944580 591.732910,713.206909 
	C596.732788,711.089111 600.521606,708.976746 599.855896,702.510925 
	C599.612000,700.142029 601.757202,697.664795 604.427734,697.233459 
	C607.425903,696.749268 607.497498,699.681702 608.199829,701.597717 
	C609.970642,706.428345 613.821106,707.277161 621.031128,704.037109 
	C616.719971,698.783569 614.367737,693.077026 616.611389,686.190186 
	C618.344238,680.871643 621.785034,677.581543 627.212097,676.904419 
	C632.953369,676.188049 638.021179,678.364502 642.363831,682.040771 
	C643.862366,683.309387 643.078552,685.088928 642.588135,686.709656 
	C642.001892,688.647095 640.675415,688.608826 639.047913,688.413757 
	C635.195862,687.952148 631.365845,687.750671 628.708496,691.414856 
	C629.219910,693.931335 631.542114,693.484741 633.373718,694.410889 
z"/>
<path fill="#000000" opacity="1.000000" stroke="none" 
	d="
M728.715759,616.109619 
	C733.802734,619.363647 738.582153,622.402649 743.316833,625.509888 
	C745.010803,626.621460 746.753601,627.521301 748.765381,627.883728 
	C752.317383,628.523621 754.566895,626.467834 756.158081,623.857910 
	C757.910400,620.983643 755.606873,619.243774 753.614258,617.680603 
	C747.192627,612.642883 740.759583,607.618958 734.285522,602.648926 
	C731.081116,600.188965 729.198059,594.048218 731.037476,590.708740 
	C732.784546,587.536804 735.151306,588.814575 737.346497,590.317444 
	C744.098633,594.940125 750.147095,600.436462 756.384521,605.697571 
	C757.530701,606.664368 758.644592,607.669373 759.791626,608.635132 
	C767.776001,615.357422 770.608765,614.765320 775.865723,605.264404 
	C775.324036,604.034546 774.111938,603.832947 773.018372,603.521301 
	C766.522400,601.669739 764.617065,599.519348 763.833069,593.154724 
	C763.555908,590.904480 763.931091,589.138672 766.617371,588.808350 
	C774.966003,587.781677 787.612671,596.157349 790.346130,604.371399 
	C791.422119,607.604797 791.302612,610.614563 789.494690,613.460022 
	C785.696716,619.437561 781.577515,625.050659 774.024170,626.707153 
	C772.626099,627.013794 771.018127,627.364868 770.490234,629.110718 
	C767.746460,638.184326 761.353394,642.163940 752.317505,642.027222 
	C751.957886,642.495972 751.675964,642.726074 751.571350,643.019531 
	C746.142090,658.249756 734.669922,660.742004 723.572021,649.086243 
	C722.213684,647.659607 720.274353,646.238647 722.209290,644.052612 
	C723.806274,642.248474 725.379883,639.862366 728.438843,641.781189 
	C729.903381,642.699890 731.481201,643.234680 733.172607,642.444519 
	C735.404968,641.401550 737.002014,639.651367 737.576050,637.295044 
	C738.206177,634.708618 735.845764,633.932373 734.244385,632.913269 
	C731.860168,631.395813 729.441528,629.833801 726.838928,628.782227 
	C723.321777,627.361206 721.615540,624.916260 721.221497,621.282166 
	C720.977051,619.027588 719.745972,616.574463 722.014893,614.771301 
	C724.426636,612.854797 726.346924,615.036194 728.715759,616.109619 
z"/>
<path fill="#000000" opacity="1.000000" stroke="none" 
	d="
M309.446350,140.400421 
	C314.866486,136.876328 320.054779,133.688293 325.761292,131.203552 
	C330.804962,152.166626 274.130432,209.403076 245.034714,212.488220 
	C257.971313,180.463135 281.100006,158.369980 309.446350,140.400421 
z"/>
<path fill="#000000" opacity="1.000000" stroke="none" 
	d="
M775.357605,168.586456 
	C766.866821,157.413071 760.257935,145.707901 756.916138,132.091354 
	C779.954834,134.318512 836.457031,190.817078 837.589844,213.082428 
	C813.564392,202.530670 792.492493,188.669937 775.357605,168.586456 
z"/>
<path fill="#000000" opacity="1.000000" stroke="none" 
	d="
M713.303467,647.575806 
	C716.314636,649.552917 718.331482,651.960205 719.977051,654.711609 
	C724.292542,661.927002 723.299377,668.644287 716.531189,673.677734 
	C710.838928,677.910889 705.056091,682.528809 697.068359,680.673828 
	C695.534668,680.317566 694.626343,681.412292 693.591248,682.242676 
	C686.254761,688.128113 680.519104,689.314514 675.455017,686.021057 
	C670.557983,682.836426 667.453796,673.678650 669.190674,666.606384 
	C670.399475,661.684387 672.608643,656.984009 671.726074,651.693787 
	C671.511597,650.408264 671.985779,648.839539 670.172852,648.498230 
	C668.473267,648.178162 667.839539,649.502258 667.414917,650.803528 
	C666.752075,652.835083 665.853638,654.932739 663.325623,654.052185 
	C659.862549,652.845947 654.973145,654.421814 653.125610,650.279663 
	C651.960144,647.666565 652.975159,644.146423 654.480286,641.675232 
	C655.874451,639.385986 658.827332,641.487305 661.007874,640.986206 
	C664.298523,633.885864 664.977478,633.687866 672.948425,636.338074 
	C675.120972,637.060425 676.617065,638.014771 676.311401,640.472229 
	C675.923035,643.593933 677.370117,645.799255 679.354309,648.009583 
	C683.135742,652.221924 686.750854,656.587708 690.339233,660.968201 
	C696.443848,668.420471 702.010620,668.000671 707.837341,659.562988 
	C707.314514,658.377502 706.195862,657.719910 705.118469,657.562988 
	C698.307800,656.570862 698.429138,651.147827 697.902039,646.280518 
	C697.537048,642.910522 699.520447,641.580688 702.583191,642.611084 
	C706.199463,643.827881 709.823486,645.143677 713.303467,647.575806 
z"/>
<path fill="#000000" opacity="1.000000" stroke="none" 
	d="
M326.922302,590.099670 
	C325.863342,589.383423 325.157227,588.746704 324.202332,587.885559 
	C324.557709,593.168152 326.213684,598.095581 326.203094,603.256714 
	C326.187531,610.847168 322.977966,616.700623 317.225952,621.353027 
	C312.050751,625.538940 306.489807,625.376038 300.908325,622.414978 
	C295.326202,619.453491 292.549164,613.667480 293.507629,607.332031 
	C294.718384,599.329224 299.060822,593.579163 306.386932,590.156494 
	C308.339600,589.244263 310.463013,588.703735 312.445435,587.847656 
	C315.755524,586.418030 318.125092,584.374084 317.044952,580.214905 
	C316.799500,579.269958 316.928680,578.227417 316.887207,577.229736 
	C316.548584,569.087646 316.564514,569.208984 324.605011,568.164490 
	C327.313599,567.812683 328.344543,568.674988 328.413391,571.206360 
	C328.462616,573.014893 329.019257,574.332031 331.043976,574.881958 
	C336.173737,576.275269 337.723785,579.155762 337.032898,585.300354 
	C336.435333,590.614746 332.330750,589.974182 328.767914,590.275879 
	C328.276611,590.317444 327.773071,590.214905 326.922302,590.099670 
M307.319275,601.761353 
	C305.620483,606.897949 307.649292,609.609558 313.252258,609.691040 
	C314.632355,602.055237 313.115051,599.685120 307.319275,601.761353 
z"/>
<path fill="#000000" opacity="1.000000" stroke="none" 
	d="
M471.237854,709.509033 
	C471.983856,707.953735 472.447876,706.679016 473.168518,705.571411 
	C474.253967,703.903076 474.836609,700.982666 477.846069,702.670410 
	C480.513550,704.166321 482.936401,705.744629 480.820404,709.712952 
	C478.344635,714.355957 477.662201,719.361206 481.722290,723.622559 
	C485.644989,727.739685 490.492371,728.693542 495.939423,726.928101 
	C498.973083,725.944885 500.242920,724.071045 499.793640,720.913208 
	C499.225159,716.917480 497.741333,713.202942 496.392944,709.447327 
	C495.044342,705.691101 498.699524,697.302734 502.332733,696.097290 
	C504.602448,695.344238 505.799652,696.735657 506.477203,698.614502 
	C510.092194,708.638977 511.780945,718.840637 509.374481,729.453308 
	C507.520966,737.627502 502.137817,741.849121 494.223755,743.350464 
	C486.167938,744.878601 479.234192,742.668640 474.121918,736.301697 
	C467.661743,728.256104 467.519409,719.206482 471.237854,709.509033 
z"/>
<path fill="#000000" opacity="1.000000" stroke="none" 
	d="
M686.450195,469.026367 
	C683.167236,468.479767 682.886169,466.343231 682.878235,464.068298 
	C682.840515,453.236145 682.873230,442.403320 682.752747,431.572144 
	C682.720886,428.708405 683.813660,426.973053 686.368958,425.674591 
	C692.294800,422.663391 697.956787,423.529449 703.632812,426.275085 
	C705.770386,427.309082 706.209473,429.061768 706.188721,431.225037 
	C706.086426,441.889832 705.984802,452.555420 706.022095,463.220276 
	C706.037109,467.504517 704.090027,469.209320 699.899719,469.058502 
	C695.573547,468.902802 691.236267,469.055298 686.450195,469.026367 
z"/>
<path fill="#000000" opacity="1.000000" stroke="none" 
	d="
M236.370148,429.095825 
	C233.271713,429.753082 232.151291,428.806213 234.188171,426.494904 
	C249.115448,409.556519 265.849579,395.150238 288.176880,388.790344 
	C288.966187,388.565521 289.800354,388.424683 290.617981,388.401917 
	C291.064636,388.389465 291.520477,388.707275 292.181427,388.954407 
	C292.039215,393.012268 289.860992,396.141968 287.596222,399.146423 
	C281.131134,407.723053 272.397278,413.426666 262.952301,418.156036 
	C254.470428,422.403107 245.643494,425.832245 236.370148,429.095825 
z"/>
<path fill="#000000" opacity="1.000000" stroke="none" 
	d="
M708.746338,447.059967 
	C709.405396,443.017548 706.915588,438.704620 711.068665,436.006226 
	C714.646973,433.681305 718.493347,432.156769 722.840271,433.820129 
	C726.749451,435.316010 729.255859,437.984741 729.294495,442.367615 
	C729.369385,450.852051 729.276062,459.338440 729.406555,467.821655 
	C729.453735,470.886658 728.011780,472.013702 725.205200,472.003601 
	C721.212463,471.989227 717.219360,471.955994 713.226990,471.991302 
	C709.812866,472.021515 708.599915,470.356964 708.687073,467.013641 
	C708.856140,460.529175 708.744263,454.037384 708.746338,447.059967 
z"/>
<path fill="#000000" opacity="1.000000" stroke="none" 
	d="
M456.395081,227.304565 
	C458.152283,227.943909 459.549011,228.453445 460.945740,228.962967 
	C460.962708,229.270111 460.979675,229.577255 460.996674,229.884399 
	C459.192993,229.884399 457.387543,229.832397 455.585968,229.893982 
	C449.822540,230.090988 447.288269,232.716431 446.912140,238.548935 
	C446.384979,246.723846 447.613770,254.789398 448.317505,262.884155 
	C448.970520,270.394958 447.459961,271.852203 440.150055,270.321991 
	C439.175537,270.118011 438.206940,269.884430 437.238647,269.652039 
	C432.239014,268.452240 431.739441,267.343628 435.140808,263.665100 
	C437.641876,260.960236 437.987488,258.222473 436.663116,255.010559 
	C435.967468,253.323334 435.369049,251.593033 434.611633,249.934769 
	C431.360931,242.817841 433.002136,236.614807 438.308868,231.286911 
	C443.292908,226.282990 449.164825,224.398712 456.395081,227.304565 
z"/>
<path fill="#000000" opacity="1.000000" stroke="none" 
	d="
M741.650452,677.603394 
	C741.244019,681.123962 740.462036,683.571838 736.348572,682.541504 
	C733.924683,681.934387 733.171021,683.896790 732.810303,685.745789 
	C732.169739,689.028931 730.080994,689.527039 727.283264,688.923462 
	C726.473633,688.748718 725.667419,688.548401 724.850159,688.420776 
	C718.624695,687.449097 716.330627,683.126099 719.093750,677.506653 
	C720.682495,674.275452 723.555237,676.669556 725.707031,676.104980 
	C728.758362,669.091309 729.078308,668.974548 735.206421,669.947876 
	C739.467651,670.624634 742.533875,672.109863 741.650452,677.603394 
z"/>
<path fill="#000000" opacity="1.000000" stroke="none" 
	d="
M489.359222,694.546509 
	C488.338806,693.448120 487.559540,692.590332 486.740112,691.772766 
	C480.346863,685.394043 480.380188,683.847717 487.092865,677.705444 
	C487.573273,677.265869 488.208344,676.475952 488.622253,676.562500 
	C493.383728,677.557983 495.691284,681.581238 498.643707,684.834412 
	C500.535004,686.918335 499.860931,688.707825 498.305328,690.519775 
	C497.014526,692.023315 495.743805,693.544189 494.449890,695.045044 
	C492.732208,697.037415 491.106842,696.872253 489.359222,694.546509 
z"/>
<path fill="#000000" opacity="1.000000" stroke="none" 
	d="
M597.806885,284.351990 
	C595.745728,288.083130 593.192383,290.735016 589.004700,290.025269 
	C584.996338,289.345917 582.479858,286.967438 582.710510,282.474518 
	C582.876587,279.239380 587.203613,273.341583 589.657471,273.901581 
	C593.100769,274.687439 596.903259,275.758972 597.884705,280.045593 
	C598.170532,281.294159 597.937805,282.661469 597.806885,284.351990 
z"/>
<path fill="#000000" opacity="1.000000" stroke="none" 
	d="
M819.385010,385.483215 
	C820.643311,386.506012 822.125427,386.852875 822.282654,388.449677 
	C818.797668,389.057800 799.325989,384.399780 792.712463,381.337769 
	C793.286743,377.977234 796.528625,376.176849 797.766907,373.147156 
	C798.320496,371.792450 799.988220,372.751740 801.184509,373.551819 
	C807.115417,377.518433 813.112427,381.386017 819.385010,385.483215 
z"/>
<path fill="#000000" opacity="1.000000" stroke="none" 
	d="
M348.019470,682.233459 
	C347.723175,675.856445 353.378021,676.516663 356.607056,675.032410 
	C359.604248,673.654846 359.792572,677.632324 360.522003,679.517029 
	C363.693909,687.712769 362.723846,689.966980 355.971649,692.078308 
	C352.928558,693.029785 351.272003,692.212280 350.452087,689.128845 
	C349.858093,686.895020 348.934204,684.748962 348.019470,682.233459 
z"/>
<path fill="#000000" opacity="1.000000" stroke="none" 
	d="
M623.545898,732.585022 
	C623.628601,736.451721 623.899658,741.059082 620.520996,742.207703 
	C616.715454,743.501404 612.632080,740.561401 608.994263,738.824463 
	C606.479004,737.623413 608.294861,734.920288 608.693481,732.960938 
	C610.102539,726.034546 610.192078,725.979797 616.664185,728.514404 
	C619.051941,729.449585 621.952209,729.575439 623.545898,732.585022 
z"/>
<path fill="#000000" opacity="1.000000" stroke="none" 
	d="
M794.700806,626.248901 
	C791.733765,615.525452 792.534058,614.637390 803.315063,614.669983 
	C808.670715,614.686157 808.755554,618.443909 809.307800,622.065247 
	C809.926453,626.123047 807.762817,627.684814 804.142883,627.185608 
	C801.044922,626.758423 797.729675,630.197266 794.700806,626.248901 
z"/>
<path fill="#000000" opacity="1.000000" stroke="none" 
	d="
M573.597656,303.711914 
	C575.489502,307.169830 576.032837,310.324677 573.352478,313.190918 
	C571.468384,315.205658 569.025574,315.597748 566.488098,314.676361 
	C562.929993,313.384369 560.820251,310.657867 560.057922,307.062592 
	C559.543579,304.636963 560.522827,302.421265 562.518799,300.937866 
	C564.659241,299.347046 567.157532,298.989746 569.538574,300.302643 
	C570.953064,301.082611 572.094299,302.358154 573.597656,303.711914 
z"/>
<path fill="#000000" opacity="1.000000" stroke="none" 
	d="
M735.294922,532.017822 
	C737.892395,530.088745 739.568176,530.544861 740.570251,533.254211 
	C740.857849,534.031738 741.268616,534.786560 741.414429,535.589722 
	C741.981812,538.714294 744.856567,542.171753 741.981384,544.920776 
	C739.156067,547.622009 735.016418,546.254822 731.433594,545.997803 
	C729.082947,545.829224 728.259216,544.275024 729.285828,542.123230 
	C730.923645,538.690552 732.263000,535.068115 735.294922,532.017822 
z"/>
<path fill="#000000" opacity="1.000000" stroke="none" 
	d="
M720.522583,514.029419 
	C722.206299,517.051147 721.308655,519.538086 719.747681,521.800537 
	C718.224976,524.007446 716.488342,526.371094 713.289185,525.308411 
	C710.826721,524.490356 709.851196,522.350403 709.699585,519.821594 
	C709.503845,516.556274 710.936768,514.339539 714.034119,513.369934 
	C716.107544,512.720947 718.266418,512.302917 720.522583,514.029419 
z"/>
<path fill="#000000" opacity="1.000000" stroke="none" 
	d="
M693.800293,511.996826 
	C701.052917,512.626709 702.258179,518.623779 699.564209,522.271545 
	C698.753601,523.369324 697.851257,524.276489 696.421448,524.491211 
	C693.473572,524.933838 689.770691,521.245483 689.038818,517.007263 
	C688.453430,513.617249 690.116699,512.048584 693.800293,511.996826 
z"/>
<path fill="#000000" opacity="1.000000" stroke="none" 
	d="
M794.916565,453.859070 
	C793.069580,456.729614 791.839294,459.654510 788.494263,460.931244 
	C790.558411,454.449860 793.773865,448.667786 798.323364,443.106018 
	C799.271729,446.329102 799.271729,446.329102 794.916565,453.859070 
z"/>
<path fill="#000000" opacity="1.000000" stroke="none" 
	d="
M775.583252,449.587585 
	C778.178894,447.429749 779.386902,444.162872 782.771606,443.174500 
	C782.798279,447.555267 775.028137,456.421509 769.656006,457.959656 
	C770.871582,454.454132 773.386902,452.331604 775.583252,449.587585 
z"/>
<path fill="#000000" opacity="1.000000" stroke="none" 
	d="
M809.772217,459.753845 
	C812.670654,455.426239 814.269531,450.583679 818.789490,447.797180 
	C818.003540,453.877289 814.288330,458.357971 810.884460,462.898407 
	C808.660278,462.306427 809.174194,461.173370 809.772217,459.753845 
z"/>
<path fill="#000000" opacity="1.000000" stroke="none" 
	d="
M357.881042,451.925079 
	C359.519531,450.128113 360.931732,448.600555 362.343964,447.073029 
	C362.728790,447.373138 363.113586,447.673248 363.498413,447.973358 
	C362.185944,453.490936 356.898102,456.891205 354.516174,462.461487 
	C357.553711,462.204834 359.990448,461.742737 362.402222,461.848755 
	C367.335876,462.065674 369.534027,464.378601 368.959167,469.163055 
	C368.381012,473.974762 368.397491,478.780090 368.240936,483.592712 
	C368.144714,486.551331 366.882935,487.991943 363.682037,488.210419 
	C350.597198,489.103668 350.493805,489.051819 352.459167,475.917786 
	C352.990784,472.365021 353.369354,468.789307 353.909241,464.501007 
	C348.416534,466.637482 347.325470,472.441864 341.206146,474.818054 
	C346.007324,465.642120 352.407410,459.312103 357.881042,451.925079 
z"/>
<path fill="#000000" opacity="1.000000" stroke="none" 
	d="
M321.611084,470.483185 
	C319.580414,471.633850 319.078888,474.313080 315.189148,474.637177 
	C319.869171,465.532806 325.740906,458.526886 332.178589,451.874023 
	C332.776459,456.647949 328.131927,459.001434 327.264526,463.053070 
	C335.482910,465.652039 336.161774,466.584015 336.272430,475.444916 
	C336.307739,478.273773 336.308868,481.103607 336.281769,483.932556 
	C336.224030,489.959076 336.011932,489.846741 328.513123,490.195129 
	C323.646637,490.421173 322.652954,488.353729 322.641724,483.999023 
	C322.630066,479.483093 323.888580,474.825897 321.611084,470.483185 
z"/>
<path fill="#000000" opacity="1.000000" stroke="none" 
	d="
M320.943298,494.044189 
	C328.336121,492.938080 335.572540,495.238373 343.001923,494.746185 
	C347.347260,494.458282 351.639374,492.864807 356.367371,493.713776 
	C350.212189,498.568604 330.523560,498.813324 320.943298,494.044189 
z"/>
<path fill="#000000" opacity="1.000000" stroke="none" 
	d="
M373.887756,465.034485 
	C374.110413,461.037750 373.042542,457.351898 375.061981,453.845764 
	C377.909180,457.092896 378.145172,474.385803 375.262421,478.844910 
	C372.898285,474.317780 374.352112,469.789062 373.887756,465.034485 
z"/>
</svg>